<?xml version="1.0" encoding="UTF-8"?>
<svg width="24px" height="24px" viewBox="0 0 24 24" stroke-width="1.5" fill="none" xmlns="http://www.w3.org/2000/svg" color="#ffffff">
<path d="M21 12V6.82843C21 6.04662 20.0533 5.63166 19.4767 6.20829L16 9.68505" stroke="#ffffff" stroke-width="1.5" stroke-linecap="round" stroke-linejoin="round"></path>
<path d="M16 14.3149L19.4767 17.7917C20.0533 18.3683 21 17.9534 21 17.1716V12" stroke="#ffffff" stroke-width="1.5" stroke-linecap="round" stroke-linejoin="round"></path>
<path d="M7 3.33782C7.47142 3.12207 8.0037 3 8.5625 3H12.4375C12.9963 3 13.5286 3.12207 14 3.33782" stroke="#ffffff" stroke-width="1.5" stroke-linecap="round"></path>
<path d="M2 12C2 8.02355 2 6.03533 3.01766 4.75592C3.27385 4.45537 3.5623 4.18614 3.87506 3.94807C4.21527 3.69058 4.59603 3.49469 5 3.33782" stroke="#ffffff" stroke-width="1.5" stroke-linecap="round"></path>
<path d="M16 3.33782C16.404 3.49469 16.7847 3.69058 17.1249 3.94807C17.4377 4.18614 17.7262 4.45537 17.9823 4.75592C19 6.03533 19 8.02355 19 12C19 15.9764 19 17.9647 17.9823 19.2441C17.7262 19.5446 17.4377 19.8139 17.1249 20.0519C15.9057 21 13.8371 21 9.7 21H7.3C3.16291 21 1.09436 21 -0.124853 20.0519C-0.437715 19.8139 -0.726169 19.5446 -0.982318 19.2441C-2 17.9647 -2 15.9764 -2 12C-2 8.02355 -2 6.03533 -0.982318 4.75592C-0.726169 4.45537 -0.437715 4.18614 -0.124853 3.94807C0.215359 3.69058 0.596033 3.49469 1 3.33782" stroke="#ffffff" stroke-width="1.5" stroke-linecap="round"></path>
</svg>
